<svg xmlns="http://www.w3.org/2000/svg" viewBox="0 0 24 24"><path fill="#96BF48" d="M15.337 23.979l7.216-1.561S19.686 7.309 19.67 7.176c-.016-.133-.133-.216-.232-.216s-1.977-.133-1.977-.133-.315-.232-1.029-.348v-.182c0-1.029-.133-1.826-.398-2.441-.033-.066-.066-.133-.1-.182-.381-.812-1.029-1.211-1.826-1.211h-.066c-.232-.266-.514-.381-.828-.381-2.011 0-2.988 2.508-3.303 3.787-.878.266-1.51.465-1.543.465-.945.299-.978.332-1.096 1.228C8.206 8.455 6 26.056 6 26.056l9.337 1.744v-3.821zm-2.326-18.616c-.598.182-1.262.381-1.943.581.182-.729.548-1.842 1.095-2.506.182-.216.432-.448.729-.598.282.6.282 1.561.119 2.523zm-1.378-3.27c.232 0 .432.05.598.149-.282.149-.564.398-.812.729-.629.762-1.096 1.942-1.295 3.07-.597.182-1.179.365-1.727.531.448-1.527 1.544-4.479 3.236-4.479zm.862 9.703s-.614-.332-1.378-.332c-1.113 0-1.162.696-1.162.878 0 .961 2.507 1.328 2.507 3.57 0 1.76-1.113 2.9-2.623 2.9-1.809 0-2.739-1.129-2.739-1.129l.481-1.594s.961.829 1.76.829c.531 0 .746-.414.746-.729 0-1.262-2.075-1.311-2.075-3.371 0-1.727 1.245-3.403 3.752-3.403.961 0 1.444.266 1.444.266l-.713 2.115z"/><path fill="#5E8E3E" d="M22.321 7.176c-.1 0-1.977-.133-1.977-.133s-1.311-1.311-1.461-1.461c-.05-.05-.116-.066-.182-.083l-.929 19.28 7.216-1.561S22.553 7.442 22.537 7.309c-.016-.082-.133-.133-.216-.133z"/></svg>
