<svg xmlns="http://www.w3.org/2000/svg" viewBox="0 0 24 24"><path fill="#21759B" d="M12 2C6.486 2 2 6.486 2 12s4.486 10 10 10 10-4.486 10-10S17.514 2 12 2zM3.08 12c0-1.27.273-2.476.757-3.567L7.7 19.243C5.012 17.896 3.08 15.17 3.08 12zm8.92 8.92c-.862 0-1.694-.124-2.48-.351l2.635-7.655 2.7 7.397c.018.044.04.085.063.124A8.88 8.88 0 0 1 12 20.92zm1.22-13.097c.533-.028.013-.662-.52-.633.533-.028 1.407.163 1.407.163-.547-.028-1.42.163-1.42.163zm4.5 10.944-.018.052-2.647-7.048c.44-.023.837-.077.837-.077.393-.048.348-.622-.045-.6 0 0-1.183.093-1.947.093-.716 0-1.921-.093-1.921-.093-.393-.022-.44.569-.047.6 0 0 .373.05.768.073l1.14 3.125-1.6 4.8-2.665-7.925c.44-.023.837-.077.837-.077.393-.048.348-.622-.045-.6 0 0-1.183.093-1.947.093-.137 0-.298-.003-.469-.01C8.088 5.57 9.955 4.08 12 4.08a8.89 8.89 0 0 1 6.718 3.068c-.043-.003-.084-.008-.129-.008-.716 0-1.224.623-1.224 1.293 0 .6.347 1.108.716 1.709.277.487.6 1.108.6 2.009 0 .624-.24 1.348-.554 2.358l-.727 2.258z"/></svg>
